<?xml version="1.0" encoding="utf-8"?>
<!-- Generator: Adobe Illustrator 26.0.2, SVG Export Plug-In . SVG Version: 6.00 Build 0)  -->
<svg version="1.1" id="Layer_1" xmlns="http://www.w3.org/2000/svg" xmlns:xlink="http://www.w3.org/1999/xlink" x="0px" y="0px"
	 viewBox="0 0 1920 1080" style="enable-background:new 0 0 1920 1080;" xml:space="preserve">
<style type="text/css">
	.st0{fill:none;stroke:#2090A4;stroke-width:3;stroke-miterlimit:10;}
	.st1{fill:none;stroke:#A50000;stroke-width:3;stroke-miterlimit:10;}
	.st2{fill:#2090A4;}
	.st3{fill:#A50000;}
	.st4{fill:none;stroke:#231F20;stroke-width:5;stroke-miterlimit:10;}
</style>
<g>
	<path class="st0" d="M1121.26,548.11"/>
</g>
<g>
	<path class="st1" d="M205.87,575.7"/>
</g>
<g>
	<g>
		<path class="st2" d="M228.67,487.45c1.92-4.98-2.5-11.47-5.46-15.08c-2.91-3.56-6.59-5.56-11.08-6.44
			c-10.14-1.99-22.33,0.63-29.51,8.39c-9.68,10.45-7.39,26.77-0.77,38.17c3.01,5.19,7.22,11.01,13.65,11.73
			c5.05,0.56,10.06-1.55,14.23-4.22c11.46-7.32,20.68-21.09,19.26-35.06c-0.31-2.99-2.6-6.35-4.3-8.69c-0.29-0.4-4-4.64-3.99-2.86
			c0.03,8.39-0.6,17.09,1.27,25.34c1.73,7.65,6.55,18.85,14.46,21.91c8.98,3.48,20.03-4.12,26.25-9.81
			c8.47-7.74,15.69-18.22,18.65-29.4c5.58-21.11-3.01-44.88-16.88-60.87c-13.59-15.68-34.04-21.27-54.25-19.88
			c-47.2,3.23-83.9,46.58-84.87,92.87c-0.51,24.26,9.3,49.33,27.24,65.95c18.82,17.44,44.42,16.57,67.94,11.43
			c43.04-9.39,77.69-40.83,101.47-76.69c-3.19-5.09-6.38-10.18-9.57-15.26c-4.38,27.79-5.18,59.98,13.3,83.23
			c2.71,3.4,6.06,6.78,10.25,8.25c6.13,2.16,12.78-0.18,18.09-3.33c12.03-7.12,21.01-18.99,26.96-31.44c8-16.72,8.8-34.74,1.43-51.8
			c-1.38-3.2-3.9-9.3-7.25-10.88c-3.18-1.51-1.52,2.61-0.73,4.4c6.93,15.69,2.3,34.33-5.77,48.69
			c-6.73,11.97-17.46,25.24-31.34,28.94c-5.83,1.56-9.15-0.1-13.73-2.95c0.43,0.27,0.76,1.21,0.97,1.64
			c-0.5-1.03-0.34-0.57-0.81-1.79c-1-2.59-1.64-5.32-2.17-8.04c-3.25-16.5-1.92-33.71,0.67-50.21c0.46-2.93-2.42-7.14-3.86-9.4
			c-0.37-0.58-4.92-7.06-5.72-5.86c-16.97,25.63-39.07,48.7-66.23,63.52c-17.77,9.7-37.73,15.41-57.97,16.56
			c-18.75,1.07-42.43-5.44-49.62-24.88c-7.25-19.6-4.09-42.93,4.23-61.68c8.03-18.09,21.85-33.63,38.94-43.63
			c16.88-9.88,37.17-14.38,56.56-11.01c14.15,2.46,29.85,9.47,33.49,24.07c5.64,22.61-3.62,46.24-22.38,59.93
			c-4.12,3.01-8.95,5.55-14.03,6.38c-1.9,0.31-3.85,0.39-5.69-0.26c-0.51-0.18-1.08-0.6-1.58-0.69c-1.64-1.36-1.05-0.33,1.76,3.1
			c0.41,0.99,0.49,1.14,0.25,0.44c0.06-1.55-0.81-3.59-1-5.19c-0.25-2.1-0.36-4.21-0.41-6.32c-0.11-4.31,0.02-8.62,0.03-12.93
			c-2.76-3.85-5.53-7.7-8.29-11.55c0.94,9.63-4.74,19.11-11.25,25.72c-5.35,5.44-14.37,12.24-22.58,10.24
			c-0.28-0.07-3.84-1.45-3.61-1.73c0.61-0.73,2.75,6.84,2.26,3.07c-0.21-1.58-0.58-3.11-0.69-4.71c-0.37-5.16,0.44-10.56,3.15-15.04
			c4.35-7.19,12.74-11.31,20.8-12.65c4.07-0.68,8.4-0.77,12.42,0.27c1.49,0.39,2.74,1.23,4.14,1.71c0.02,0.01,0.65,0.31,0.25,0.18
			c-3.17-1.06-3.09-9.99-4.16-7.09c-0.21,0.57-0.21,1.28-0.4,1.87c-0.73,2.21,2.32,6.35,3.47,8.05
			C224.96,484.79,228,489.18,228.67,487.45L228.67,487.45z"/>
	</g>
</g>
<g>
	<g>
		<path class="st2" d="M380.84,486.18c9.81,8.1,19.8,16.06,30.61,22.81c7.33,4.58,15.31,9.02,23.91,10.6
			c16.15,2.95,30.09-9.9,28.82-26.55c-0.64-8.39-6.27-18.49-14.02-22.25c-7.54-3.65-17.35-2.44-25.08-0.12
			c-21.04,6.31-34.18,25.68-32.27,47.59c1.74,19.96,17.63,45.07,38.52,49.09c13.97,2.69,26.13-5.87,35.3-15.48
			c10.84-11.35,19.14-24.98,27.13-38.41c3.52-5.92,6.94-11.9,10.6-17.73c2.46-3.92,4.99-8.26,8.46-11.39
			c1.26-1.14,2.32-1.47,3.79-2.12c0.03-0.01,0.98,0.31,0.96,0.33c-0.49,0.59-4.93-7.03-5.05-7.3c-0.24-0.53-0.31-1.11-0.11-0.04
			c0.16,0.87,0.29,1.74,0.39,2.62c0.27,2.51,0.25,5.05,0.19,7.57c-0.57,22.63-5.35,45.37-9.64,67.51c-0.56,2.9,2.54,7.17,4.06,9.41
			c0.43,0.63,4.29,5.92,4.84,3.86c4.74-18.06,11.91-35.88,22.7-51.2c7.13-10.12,16.05-19.22,27-25.19c5.33-2.9,13.31-7.12,19.5-5.58
			c0.86,0.21,3.9,2.14,4.28,2.05c-0.85,0.21-3.23-7.19-3.43-5.51c-0.23,1.87,0.52,4.25,0.46,6.21c-0.34,10.45-3.43,20.73-5.61,30.89
			c-1.94,9.05-3.94,18.77-0.66,27.73c2.03,5.54,5.44,11.75,10.14,15.49c3.98,3.17,9.48,3.66,14.39,3.51
			c14.24-0.45,25.04-11.37,33.7-21.71c20.14-24.02,22.85-55.11,23.87-85.24c0.52-15.4,0.48-30.9-0.86-46.26
			c-0.81-9.31-2.3-20.5-9.93-27c-2.32-1.98-2.87-0.9-3.03,1.53c-0.23,3.53,0.54,7.34,0.93,10.84c1.54,13.98,2.84,27.96,3.02,42.03
			c0.23,18.53-1.29,37.01-5.14,55.15c-2.8,13.17-3.47,26.28,2.07,38.89c4.8,10.93,21.93,40.04,35.42,24
			c4.52-5.38,7.46-12.22,10.07-18.67c4.76-11.79,8.3-24.07,11.56-36.35c2.36-8.91,4.52-17.86,6.57-26.85
			c0.66-2.91-2.66-7.43-4.18-9.68c-0.48-0.71-4.29-6.08-4.98-3.97c-6.16,18.89-10.22,39.05-8.57,59
			c1.1,13.24,6.27,29.98,17.62,38.08c12.83,9.16,30.16-6.42,39.19-14.56c12.17-10.97,20.57-24.41,25.58-40
			c2.11-6.56,3.62-13.31,4.62-20.12c0.33-2.23,0.59-4.48,0.81-6.72c0.08-0.77,0.58-2.91,0.04-2.28c-2.92-4.36-5.83-8.72-8.75-13.08
			c-0.17-1.84-0.37,0.39-0.54,1.11c-0.41,1.66-0.84,3.32-1.25,4.99c-1.34,5.42-2.61,10.87-3.77,16.33
			c-2.82,13.27-5.48,26.94-5.52,40.56c-0.02,5.7,0.5,11.34,2.65,16.66c2.09,5.18,5.99,13.55,11.9,15.38
			c7.64,2.36,16.39-6.64,21.38-11.2c7.35-6.72,13.15-14.75,17.44-23.72c7.16-14.97,9.85-31.83,9.52-48.33
			c-0.9-0.33-1.8-0.66-2.7-0.98c12.33,13.02,29,18.99,46.67,14.75c10.5-2.52,20.91-7.92,29.06-15.05
			c-3.02-4.81-6.04-9.63-9.06-14.44c-5.69,14.14-10.64,28.69-14.3,43.48c-2.2,8.88-4.16,18.16-3.77,27.36
			c0.38,9.06,4.56,19.59,11.75,25.39c4.2,3.39,9.23,2.16,13.8,0.17c8.9-3.87,16.93-9.99,24.7-15.71
			c13.12-9.65,25.86-19.82,38.55-30.03c7.95-6.39,17.87-13.06,23.39-21.9c4.43-7.09-0.3-14.98-4.9-20.92
			c-7.43-9.61-20.66-11.83-32.12-9.91c-27.78,4.66-37.03,37.86-27.17,61.07c8.6,20.24,26.23,37.12,48.58,39.96
			c13.34,1.69,26.96-0.84,39.42-5.63c7.06-2.71,13.83-6.17,20.24-10.17c6.62-4.13,12.4-9.44,18.99-13.55
			c11.88-7.41,25.93-11.79,40.01-10.24c11.07,1.22,21.37,5.96,30.49,12.19c16.79,11.48,30.59,28.77,49.71,36.6
			c23.34,9.56,45.82-6.94,55.72-27.84c11.84-25-1.9-55.39-14.51-77.39c-6.7-11.69-15.01-22.28-24.32-32
			c-8.22-8.59-17-16.69-24.28-26.13c-13.62-17.66-21.2-38.78-24.01-61.4c-5.49-44.21,11.23-98.31,54.24-118.09
			c10.25-4.71,21.34-7.39,32.6-7.96c9.2-0.47,16.88,4.5,24.27,9.61c19.05,13.16,20.7,39.35,21.66,60.58
			c1.15,25.68,0.54,51.27-8.25,75.76c-6.2,17.28-16.48,32.58-26.38,47.91c-7.42,11.5-15.35,23.15-20.08,36.09
			c-4,10.95-4.52,22.33-1.41,33.57c1,3.61,3.4,7.68,6.05,10.32c2.06,2.05,3.09,1.72,2.25-1.32c-7.08-25.59,13.12-50.51,25.96-70.52
			c9.01-14.05,17.85-28.2,23.33-44.06c4.75-13.76,7.24-28.22,7.99-42.73c2.3-44.44-2.27-98.58-44.21-123.92
			c-6.8-4.11-12.47-6.52-20.37-6.1c-10.79,0.57-21.46,3.14-31.34,7.54c-23.08,10.29-38.9,30.63-47.62,53.89
			c-14.86,39.64-9.87,83.03,8.72,120.56c5.88,11.88,13,23.16,21.47,33.36c7.33,8.82,15.63,16.67,23.54,24.95
			c8.33,8.71,15.56,18.04,20.7,29c5.72,12.2,10.85,26.35,9.57,40.05c-2.07,22.15-23.08,46.74-46.71,45.23
			c-19.03-1.22-33.86-17.73-47.65-29.09c-16.62-13.68-35.48-24.98-57.85-22.28c-14.09,1.7-25.42,8.43-36.5,16.73
			c-11.88,8.89-25.25,16.07-39.61,19.98c-20.58,5.6-43.8,3.6-59.32-12.28c-7.72-7.9-7.61-19.72-4.8-29.86
			c3.38-12.19,11.94-23.08,24.32-26.9c6.39-1.97,13.33-2.21,19.87-0.85c2.79,0.58,5.66,1.44,8.16,2.83
			c0.77,0.43,1.87,1.63,2.66,1.85c-0.88-0.24-3.67-8.31-4.23-7.44c-0.06,0.1-0.12,0.45,0.04,0.06c-0.83,2.02-0.86,3.72-2.27,5.66
			c-2.38,3.29-5.44,6.11-8.44,8.82c-11.39,10.28-23.92,19.29-36.1,28.59c-9.85,7.52-19.61,15.22-30.01,21.97
			c-5.21,3.39-11.93,8.23-18.43,8.49c-3.67,0.15-5.29-3.17-1.92,2.25c2.96,4.75,1.93,3.89,1.52,0.73c-0.23-1.76-0.26-3.52-0.21-5.29
			c0.49-18.13,6.88-36.45,12.9-53.38c1.65-4.63,3.36-9.24,5.19-13.79c0.99-2.47-7.37-15.92-9.06-14.44
			c-19.6,17.15-51.09,24.25-70.82,3.43c-0.08-0.08-2.73-2.74-2.7-0.98c0.63,30.16-9.56,60.97-35.42,78.61
			c-2.82,1.93-6.58,4.36-10.18,4c-0.72-0.07-1.74-0.79-2.08-0.74c1.5-0.21,2.38,4.44,3.8,5.68c0.54,0.48,0.24,1.57,0.27,0.5
			c0.05-1.67-0.72-4.16-0.83-6.1c-0.15-2.72-0.06-5.47,0.08-8.19c0.66-12.33,2.96-24.59,5.53-36.65c1.14-5.36,2.39-10.7,3.7-16.02
			c0.57-2.29,1.76-5.02,1.54-7.43c-0.16-1.74-7.28-14.8-8.75-13.08c-0.92,1.08-0.62,3.87-0.76,5.15c-0.47,4.38-1.16,8.73-2.06,13.04
			c-2.76,13.14-7.54,26.07-15.35,37.06c-8.18,11.51-20.84,22.93-33.81,28.71c-2.9,1.29-6.15,2.41-9.37,2.4
			c-1.58,0-3.23-0.29-4.69-0.92c-0.5-0.21-2.27-1.66-2.61-1.64c-0.18,0.01,0.66,1.63,1.05,1.77c-0.06-0.02-0.62-1.75-0.74-2.12
			c-0.91-2.93-1.38-6.02-1.73-9.07c-2.3-19.94,2.29-40.76,8.47-59.61c-3.05-4.55-6.1-9.1-9.15-13.65
			c-5.53,24.03-10.87,49.7-22.13,71.86c-2.19,4.3-4.86,9.08-8.85,11.99c-5.56,4.05-10.9,0.16-14.75-4.67
			c-1.13-1.42-1.25-1.21-1.86-2.61c-1.41-3.25-1.77-7.25-1.87-10.75c-0.18-5.78,0.68-11.55,1.86-17.18
			c3.42-16.3,5.42-32.65,5.68-49.32c0.22-14.26-0.63-28.52-2.07-42.71c-0.62-6.13-0.81-13.82-1.66-19.35
			c0.14,0.94-7.25-9.63-7.36-9.8c-0.52-0.84-0.36-1.06-0.34-0.8c0.11,1.73,0.64,3.54,0.86,5.27c0.67,5.25,1,10.55,1.23,15.84
			c0.7,16.41,0.4,32.88-0.66,49.27c-1.76,27.3-7.36,53.48-26.86,73.82c-9.2,9.59-19.53,18.44-33.71,16.84
			c-2.21-0.25-4.7-1.78-6.75-1.88c-1.99-0.1,4.68,5.68,3.56,5.91c-0.91,0.19,0.27,0.33,0.22,0.51c0.14-0.44-0.27-1.32-0.3-1.79
			c-0.25-4.04,0.06-7.97,0.67-11.97c2.74-17.89,12.07-38.23,3.32-55.69c-2.52-5.04-5.91-10.26-10.93-13.09
			c-5.94-3.36-12.1-1.22-17.97,1.21c-10.88,4.51-20.11,12.18-27.6,21.17c-12.54,15.03-20.84,33.55-26.44,52.18
			c-0.73,2.44-1.41,4.9-2.05,7.36c2.97,4.42,5.93,8.84,8.9,13.26c3.8-19.95,7.58-40.11,9.07-60.4c0.67-9.16,1.18-18.76-3.06-27.18
			c-1.58-3.13-4.52-9.24-8.45-10.16c-2.63-0.61-4.82,1.68-6.4,3.43c-7.49,8.3-12.52,19.22-18.16,28.78
			c-7.47,12.66-15.25,25.41-25.17,36.33c-8.06,8.87-18.97,18.05-31.71,17.56c-9.2-0.35-20.57-6.38-24.88-14.81
			c-4.46-8.71-3.16-20.79,0.03-29.66c6.51-18.14,27.3-30.95,46.59-28.32c1.95,0.27,3.94,0.7,5.76,1.49c0.6,0.26,1.74,1.17,2.35,1.25
			c1.28,1.12,1.02,0.55-0.77-1.72c-1.29-2.68-1.71-3.06-1.25-1.12c-0.57,2.42-0.09,5.18-0.74,7.71c-0.72,2.81-1.86,5.53-3.43,7.98
			c-4.06,6.31-10.88,10.16-18.4,10.09c-8.67-0.08-17.14-4.33-24.47-8.55c-11.75-6.77-22.52-15.27-33.03-23.79
			c-2.29-1.86-0.81,2.5-0.53,3.2C376.68,481.03,378.5,484.25,380.84,486.18L380.84,486.18z"/>
	</g>
</g>
<g>
	<g>
		<path class="st2" d="M627.92,454.86c13.48-3.68,26.46-8.86,39.41-14.2c7.02-2.9,14-5.91,21.01-8.85c2.99-1.25,5.97-2.5,8.96-3.75
			c2.49-1.04,6.19-1.88,8.2-3.71c2.75-2.5-6.65-17.48-10.1-17.21c-2.64,0.21-5.53,2.02-7.94,3.05c-2.94,1.27-5.89,2.54-8.83,3.82
			c-7.15,3.11-14.33,6.18-21.45,9.36c-12.6,5.62-25.07,11.45-36.98,18.33C618.25,442.82,625.23,455.6,627.92,454.86L627.92,454.86z"
			/>
	</g>
</g>
<path class="st1" d="M249.24,413.52"/>
<g>
	<path class="st1" d="M173.7,487.55"/>
</g>
<g>
	<path class="st0" d="M1225.3,455.83"/>
</g>
<path class="st0" d="M362.85,468.18"/>
<g>
	<g>
		<path class="st3" d="M1194.93,293.02c-7.03-2.15-13.16,5.04-14.02,11.47c-0.98,7.34,2.84,14.93,6.89,20.78
			c8.65,12.51,25.51,18.25,39.05,9.58c14.56-9.32,11.78-27.13,3.37-39.58c-4.15-6.15-9.87-11.53-17.27-13.32
			c-6.94-1.68-18.92-0.66-22.98,6.03c-1.38,2.26,4.32,12.32,7.03,11.97c5.14-0.65,9.68-4,15.09-4.51
			c5.13-0.48,10.67,0.66,15.02,3.52c0.46,0.3,2.49,2.46,1.89,1.23c-0.72-1.46,0.01,2.39,0.02,2.91c0.03,2.39-0.42,4.86-1.16,7.13
			c-1.54,4.7-4.67,8.64-8.77,11.37c-8.01,5.31-18.97,5.77-27.28,0.87c-1.18-0.7-2.11-1.54-3.22-2.33c1.08,0.77,0.3,1.65,0.09-0.55
			c-0.26-2.68-0.07-5.33,1.02-7.84c1.01-2.33,2.75-4.49,4.77-6.02c1.76-1.34,4-1.87,5.63-3.3
			C1201.68,301.04,1196.51,293.5,1194.93,293.02L1194.93,293.02z"/>
	</g>
</g>
<path class="st4" d="M1387.45,656.86"/>
</svg>
