<?xml version="1.0" encoding="utf-8"?>
<!-- Generator: Adobe Illustrator 26.0.2, SVG Export Plug-In . SVG Version: 6.00 Build 0)  -->
<svg version="1.1" id="Layer_1" xmlns="http://www.w3.org/2000/svg" xmlns:xlink="http://www.w3.org/1999/xlink" x="0px" y="0px"
	 viewBox="0 0 1160.1 379.2" style="enable-background:new 0 0 1160.1 379.2;" xml:space="preserve">
<style type="text/css">
	.st0{fill:none;stroke:#2090A4;stroke-width:3;stroke-miterlimit:10;}
	.st1{fill:none;stroke:#A50000;stroke-width:3;stroke-miterlimit:10;}
	.st2{fill:#2090A4;}
	.st3{fill:#A50000;}
	.st4{fill:none;stroke:#231F20;stroke-width:5;stroke-miterlimit:10;}
</style>
<g>
	<path class="st0" d="M1000.2,350"/>
</g>
<g>
	<path class="st1" d="M84.8,377.6"/>
</g>
<g>
	<g>
		<path class="st2" d="M107.6,289.3c1.9-5-2.5-11.5-5.5-15.1c-2.9-3.6-6.6-5.6-11.1-6.4c-10.1-2-22.3,0.6-29.5,8.4
			c-9.7,10.5-7.4,26.8-0.8,38.2c3,5.2,7.2,11,13.6,11.7c5.1,0.6,10.1-1.5,14.2-4.2c11.5-7.3,20.7-21.1,19.3-35.1
			c-0.3-3-2.6-6.4-4.3-8.7c-0.3-0.4-4-4.6-4-2.9c0,8.4-0.6,17.1,1.3,25.3c1.7,7.6,6.6,18.9,14.5,21.9c9,3.5,20-4.1,26.3-9.8
			c8.5-7.7,15.7-18.2,18.6-29.4c5.6-21.1-3-44.9-16.9-60.9c-13.6-15.7-34-21.3-54.2-19.9c-47.2,3.2-83.9,46.6-84.9,92.9
			c-0.5,24.3,9.3,49.3,27.2,65.9c18.8,17.4,44.4,16.6,67.9,11.4c43-9.4,77.7-40.8,101.5-76.7c-3.2-5.1-6.4-10.2-9.6-15.3
			c-4.4,27.8-5.2,60,13.3,83.2c2.7,3.4,6.1,6.8,10.2,8.2c6.1,2.2,12.8-0.2,18.1-3.3c12-7.1,21-19,27-31.4c8-16.7,8.8-34.7,1.4-51.8
			c-1.4-3.2-3.9-9.3-7.2-10.9c-3.2-1.5-1.5,2.6-0.7,4.4c6.9,15.7,2.3,34.3-5.8,48.7c-6.7,12-17.5,25.2-31.3,28.9
			c-5.8,1.6-9.1-0.1-13.7-3c0.4,0.3,0.8,1.2,1,1.6c-0.5-1-0.3-0.6-0.8-1.8c-1-2.6-1.6-5.3-2.2-8c-3.2-16.5-1.9-33.7,0.7-50.2
			c0.5-2.9-2.4-7.1-3.9-9.4c-0.4-0.6-4.9-7.1-5.7-5.9c-17,25.6-39.1,48.7-66.2,63.5c-17.8,9.7-37.7,15.4-58,16.6
			c-18.8,1.1-42.4-5.4-49.6-24.9c-7.3-19.6-4.1-42.9,4.2-61.7c8-18.1,21.9-33.6,38.9-43.6c16.9-9.9,37.2-14.4,56.6-11
			c14.1,2.5,29.8,9.5,33.5,24.1c5.6,22.6-3.6,46.2-22.4,59.9c-4.1,3-8.9,5.5-14,6.4c-1.9,0.3-3.9,0.4-5.7-0.3
			c-0.5-0.2-1.1-0.6-1.6-0.7c-1.6-1.4-1.1-0.3,1.8,3.1c0.4,1,0.5,1.1,0.2,0.4c0.1-1.5-0.8-3.6-1-5.2c-0.2-2.1-0.4-4.2-0.4-6.3
			c-0.1-4.3,0-8.6,0-12.9c-2.8-3.9-5.5-7.7-8.3-11.5c0.9,9.6-4.7,19.1-11.2,25.7c-5.4,5.4-14.4,12.2-22.6,10.2
			c-0.3-0.1-3.8-1.5-3.6-1.7c0.6-0.7,2.8,6.8,2.3,3.1c-0.2-1.6-0.6-3.1-0.7-4.7c-0.4-5.2,0.4-10.6,3.1-15
			c4.4-7.2,12.7-11.3,20.8-12.6c4.1-0.7,8.4-0.8,12.4,0.3c1.5,0.4,2.7,1.2,4.1,1.7c0,0,0.6,0.3,0.2,0.2c-3.2-1.1-3.1-10-4.2-7.1
			c-0.2,0.6-0.2,1.3-0.4,1.9c-0.7,2.2,2.3,6.4,3.5,8C103.9,286.7,106.9,291.1,107.6,289.3L107.6,289.3z"/>
	</g>
</g>
<g>
	<g>
		<path class="st2" d="M259.8,288.1c9.8,8.1,19.8,16.1,30.6,22.8c7.3,4.6,15.3,9,23.9,10.6c16.1,3,30.1-9.9,28.8-26.5
			c-0.6-8.4-6.3-18.5-14-22.2c-7.5-3.6-17.4-2.4-25.1-0.1c-21,6.3-34.2,25.7-32.3,47.6c1.7,20,17.6,45.1,38.5,49.1
			c14,2.7,26.1-5.9,35.3-15.5c10.8-11.3,19.1-25,27.1-38.4c3.5-5.9,6.9-11.9,10.6-17.7c2.5-3.9,5-8.3,8.5-11.4
			c1.3-1.1,2.3-1.5,3.8-2.1c0,0,1,0.3,1,0.3c-0.5,0.6-4.9-7-5-7.3c-0.2-0.5-0.3-1.1-0.1,0c0.2,0.9,0.3,1.7,0.4,2.6
			c0.3,2.5,0.2,5,0.2,7.6c-0.6,22.6-5.4,45.4-9.6,67.5c-0.6,2.9,2.5,7.2,4.1,9.4c0.4,0.6,4.3,5.9,4.8,3.9
			c4.7-18.1,11.9-35.9,22.7-51.2c7.1-10.1,16-19.2,27-25.2c5.3-2.9,13.3-7.1,19.5-5.6c0.9,0.2,3.9,2.1,4.3,2
			c-0.8,0.2-3.2-7.2-3.4-5.5c-0.2,1.9,0.5,4.2,0.5,6.2c-0.3,10.5-3.4,20.7-5.6,30.9c-1.9,9-3.9,18.8-0.7,27.7
			c2,5.5,5.4,11.8,10.1,15.5c4,3.2,9.5,3.7,14.4,3.5c14.2-0.5,25-11.4,33.7-21.7c20.1-24,22.8-55.1,23.9-85.2
			c0.5-15.4,0.5-30.9-0.9-46.3c-0.8-9.3-2.3-20.5-9.9-27c-2.3-2-2.9-0.9-3,1.5c-0.2,3.5,0.5,7.3,0.9,10.8c1.5,14,2.8,28,3,42
			c0.2,18.5-1.3,37-5.1,55.1c-2.8,13.2-3.5,26.3,2.1,38.9c4.8,10.9,21.9,40,35.4,24c4.5-5.4,7.5-12.2,10.1-18.7
			c4.8-11.8,8.3-24.1,11.6-36.4c2.4-8.9,4.5-17.9,6.6-26.9c0.7-2.9-2.7-7.4-4.2-9.7c-0.5-0.7-4.3-6.1-5-4c-6.2,18.9-10.2,39-8.6,59
			c1.1,13.2,6.3,30,17.6,38.1c12.8,9.2,30.2-6.4,39.2-14.6c12.2-11,20.6-24.4,25.6-40c2.1-6.6,3.6-13.3,4.6-20.1
			c0.3-2.2,0.6-4.5,0.8-6.7c0.1-0.8,0.6-2.9,0-2.3c-2.9-4.4-5.8-8.7-8.8-13.1c-0.2-1.8-0.4,0.4-0.5,1.1c-0.4,1.7-0.8,3.3-1.2,5
			c-1.3,5.4-2.6,10.9-3.8,16.3c-2.8,13.3-5.5,26.9-5.5,40.6c0,5.7,0.5,11.3,2.7,16.7c2.1,5.2,6,13.5,11.9,15.4
			c7.6,2.4,16.4-6.6,21.4-11.2c7.3-6.7,13.2-14.8,17.4-23.7c7.2-15,9.8-31.8,9.5-48.3c-0.9-0.3-1.8-0.7-2.7-1
			c12.3,13,29,19,46.7,14.8c10.5-2.5,20.9-7.9,29.1-15c-3-4.8-6-9.6-9.1-14.4c-5.7,14.1-10.6,28.7-14.3,43.5
			c-2.2,8.9-4.2,18.2-3.8,27.4c0.4,9.1,4.6,19.6,11.8,25.4c4.2,3.4,9.2,2.2,13.8,0.2c8.9-3.9,16.9-10,24.7-15.7
			c13.1-9.7,25.9-19.8,38.5-30c8-6.4,17.9-13.1,23.4-21.9c4.4-7.1-0.3-15-4.9-20.9c-7.4-9.6-20.7-11.8-32.1-9.9
			c-27.8,4.7-37,37.9-27.2,61.1c8.6,20.2,26.2,37.1,48.6,40c13.3,1.7,27-0.8,39.4-5.6c7.1-2.7,13.8-6.2,20.2-10.2
			c6.6-4.1,12.4-9.4,19-13.5c11.9-7.4,25.9-11.8,40-10.2c11.1,1.2,21.4,6,30.5,12.2c16.8,11.5,30.6,28.8,49.7,36.6
			c23.3,9.6,45.8-6.9,55.7-27.8c11.8-25-1.9-55.4-14.5-77.4c-6.7-11.7-15-22.3-24.3-32c-8.2-8.6-17-16.7-24.3-26.1
			c-13.6-17.7-21.2-38.8-24-61.4c-5.5-44.2,11.2-98.3,54.2-118.1c10.2-4.7,21.3-7.4,32.6-8c9.2-0.5,16.9,4.5,24.3,9.6
			c19.1,13.2,20.7,39.4,21.7,60.6c1.2,25.7,0.5,51.3-8.2,75.8c-6.2,17.3-16.5,32.6-26.4,47.9c-7.4,11.5-15.3,23.1-20.1,36.1
			c-4,11-4.5,22.3-1.4,33.6c1,3.6,3.4,7.7,6.1,10.3c2.1,2,3.1,1.7,2.2-1.3c-7.1-25.6,13.1-50.5,26-70.5c9-14,17.8-28.2,23.3-44.1
			c4.8-13.8,7.2-28.2,8-42.7c2.3-44.4-2.3-98.6-44.2-123.9c-6.8-4.1-12.5-6.5-20.4-6.1c-10.8,0.6-21.5,3.1-31.3,7.5
			c-23.1,10.3-38.9,30.6-47.6,53.9c-14.9,39.6-9.9,83,8.7,120.6c5.9,11.9,13,23.2,21.5,33.4c7.3,8.8,15.6,16.7,23.5,25
			c8.3,8.7,15.6,18,20.7,29c5.7,12.2,10.8,26.4,9.6,40c-2.1,22.2-23.1,46.7-46.7,45.2c-19-1.2-33.9-17.7-47.7-29.1
			c-16.6-13.7-35.5-25-57.8-22.3c-14.1,1.7-25.4,8.4-36.5,16.7c-11.9,8.9-25.2,16.1-39.6,20c-20.6,5.6-43.8,3.6-59.3-12.3
			c-7.7-7.9-7.6-19.7-4.8-29.9c3.4-12.2,11.9-23.1,24.3-26.9c6.4-2,13.3-2.2,19.9-0.9c2.8,0.6,5.7,1.4,8.2,2.8
			c0.8,0.4,1.9,1.6,2.7,1.9c-0.9-0.2-3.7-8.3-4.2-7.4c-0.1,0.1-0.1,0.5,0,0.1c-0.8,2-0.9,3.7-2.3,5.7c-2.4,3.3-5.4,6.1-8.4,8.8
			c-11.4,10.3-23.9,19.3-36.1,28.6c-9.8,7.5-19.6,15.2-30,22c-5.2,3.4-11.9,8.2-18.4,8.5c-3.7,0.2-5.3-3.2-1.9,2.2
			c3,4.8,1.9,3.9,1.5,0.7c-0.2-1.8-0.3-3.5-0.2-5.3c0.5-18.1,6.9-36.5,12.9-53.4c1.7-4.6,3.4-9.2,5.2-13.8c1-2.5-7.4-15.9-9.1-14.4
			c-19.6,17.1-51.1,24.2-70.8,3.4c-0.1-0.1-2.7-2.7-2.7-1c0.6,30.2-9.6,61-35.4,78.6c-2.8,1.9-6.6,4.4-10.2,4
			c-0.7-0.1-1.7-0.8-2.1-0.7c1.5-0.2,2.4,4.4,3.8,5.7c0.5,0.5,0.2,1.6,0.3,0.5c0-1.7-0.7-4.2-0.8-6.1c-0.2-2.7-0.1-5.5,0.1-8.2
			c0.7-12.3,3-24.6,5.5-36.6c1.1-5.4,2.4-10.7,3.7-16c0.6-2.3,1.8-5,1.5-7.4c-0.2-1.7-7.3-14.8-8.8-13.1c-0.9,1.1-0.6,3.9-0.8,5.1
			c-0.5,4.4-1.2,8.7-2.1,13c-2.8,13.1-7.5,26.1-15.3,37.1c-8.2,11.5-20.8,22.9-33.8,28.7c-2.9,1.3-6.2,2.4-9.4,2.4
			c-1.6,0-3.2-0.3-4.7-0.9c-0.5-0.2-2.3-1.7-2.6-1.6c-0.2,0,0.7,1.6,1,1.8c-0.1,0-0.6-1.8-0.7-2.1c-0.9-2.9-1.4-6-1.7-9.1
			c-2.3-19.9,2.3-40.8,8.5-59.6c-3-4.5-6.1-9.1-9.2-13.6c-5.5,24-10.9,49.7-22.1,71.9c-2.2,4.3-4.9,9.1-8.8,12
			c-5.6,4-10.9,0.2-14.8-4.7c-1.1-1.4-1.2-1.2-1.9-2.6c-1.4-3.2-1.8-7.2-1.9-10.8c-0.2-5.8,0.7-11.5,1.9-17.2
			c3.4-16.3,5.4-32.6,5.7-49.3c0.2-14.3-0.6-28.5-2.1-42.7c-0.6-6.1-0.8-13.8-1.7-19.4c0.1,0.9-7.2-9.6-7.4-9.8
			c-0.5-0.8-0.4-1.1-0.3-0.8c0.1,1.7,0.6,3.5,0.9,5.3c0.7,5.2,1,10.5,1.2,15.8c0.7,16.4,0.4,32.9-0.7,49.3
			c-1.8,27.3-7.4,53.5-26.9,73.8c-9.2,9.6-19.5,18.4-33.7,16.8c-2.2-0.2-4.7-1.8-6.8-1.9c-2-0.1,4.7,5.7,3.6,5.9
			c-0.9,0.2,0.3,0.3,0.2,0.5c0.1-0.4-0.3-1.3-0.3-1.8c-0.2-4,0.1-8,0.7-12c2.7-17.9,12.1-38.2,3.3-55.7c-2.5-5-5.9-10.3-10.9-13.1
			c-5.9-3.4-12.1-1.2-18,1.2c-10.9,4.5-20.1,12.2-27.6,21.2c-12.5,15-20.8,33.6-26.4,52.2c-0.7,2.4-1.4,4.9-2,7.4
			c3,4.4,5.9,8.8,8.9,13.3c3.8-20,7.6-40.1,9.1-60.4c0.7-9.2,1.2-18.8-3.1-27.2c-1.6-3.1-4.5-9.2-8.5-10.2c-2.6-0.6-4.8,1.7-6.4,3.4
			c-7.5,8.3-12.5,19.2-18.2,28.8c-7.5,12.7-15.2,25.4-25.2,36.3c-8.1,8.9-19,18-31.7,17.6c-9.2-0.3-20.6-6.4-24.9-14.8
			c-4.5-8.7-3.2-20.8,0-29.7c6.5-18.1,27.3-31,46.6-28.3c2,0.3,3.9,0.7,5.8,1.5c0.6,0.3,1.7,1.2,2.4,1.2c1.3,1.1,1,0.5-0.8-1.7
			c-1.3-2.7-1.7-3.1-1.2-1.1c-0.6,2.4-0.1,5.2-0.7,7.7c-0.7,2.8-1.9,5.5-3.4,8c-4.1,6.3-10.9,10.2-18.4,10.1
			c-8.7-0.1-17.1-4.3-24.5-8.5c-11.8-6.8-22.5-15.3-33-23.8c-2.3-1.9-0.8,2.5-0.5,3.2C255.6,282.9,257.4,286.1,259.8,288.1
			L259.8,288.1z"/>
	</g>
</g>
<g>
	<g>
		<path class="st2" d="M506.8,256.7c13.5-3.7,26.5-8.9,39.4-14.2c7-2.9,14-5.9,21-8.9c3-1.2,6-2.5,9-3.8c2.5-1,6.2-1.9,8.2-3.7
			c2.8-2.5-6.7-17.5-10.1-17.2c-2.6,0.2-5.5,2-7.9,3c-2.9,1.3-5.9,2.5-8.8,3.8c-7.2,3.1-14.3,6.2-21.5,9.4
			c-12.6,5.6-25.1,11.5-37,18.3C497.2,244.7,504.2,257.5,506.8,256.7L506.8,256.7z"/>
	</g>
</g>
<path class="st1" d="M128.2,215.4"/>
<g>
	<path class="st1" d="M52.6,289.4"/>
</g>
<g>
	<path class="st0" d="M1104.2,257.7"/>
</g>
<path class="st0" d="M241.8,270.1"/>
<g>
	<g>
		<path class="st3" d="M1073.9,94.9c-7-2.1-13.2,5-14,11.5c-1,7.3,2.8,14.9,6.9,20.8c8.7,12.5,25.5,18.3,39.1,9.6
			c14.6-9.3,11.8-27.1,3.4-39.6c-4.2-6.1-9.9-11.5-17.3-13.3c-6.9-1.7-18.9-0.7-23,6c-1.4,2.3,4.3,12.3,7,12c5.1-0.6,9.7-4,15.1-4.5
			c5.1-0.5,10.7,0.7,15,3.5c0.5,0.3,2.5,2.5,1.9,1.2c-0.7-1.5,0,2.4,0,2.9c0,2.4-0.4,4.9-1.2,7.1c-1.5,4.7-4.7,8.6-8.8,11.4
			c-8,5.3-19,5.8-27.3,0.9c-1.2-0.7-2.1-1.5-3.2-2.3c1.1,0.8,0.3,1.6,0.1-0.5c-0.3-2.7-0.1-5.3,1-7.8c1-2.3,2.8-4.5,4.8-6
			c1.8-1.3,4-1.9,5.6-3.3C1080.6,102.9,1075.4,95.4,1073.9,94.9L1073.9,94.9z"/>
	</g>
</g>
<path class="st4" d="M1266.4,458.7"/>
</svg>
